{"title":"Mythica.The.Darkspore.2015.BRRip.x264-MenaceIISociety","uid":12274842,"size":1326129620,"categoryP":"video","categoryS":"movies","magnet":"?xt=urn:btih:9109dcdde488d2bcc73cdff624f4690bd9650af4&amp;dn=Mythica.The.Darkspore.2015.BRRip.x264-MenaceIISociety&amp;tr=udp%3A%2F%2Ftracker.openbittorrent.com%3A80&amp;tr=udp%3A%2F%2Fopen.demonii.com%3A1337&amp;tr=udp%3A%2F%2Ftracker.coppersurfer.tk%3A6969&amp;tr=udp%3A%2F%2Fexodus.desync.com%3A6969","seeders":6,"leechers":2,"uploader":"xxxlavalxxx","files":4,"time":1440339259,"description":" &lt;a href=&quot;http://extraimago.com/image/L0c&quot; rel=&quot;nofollow&quot; target=&quot;_NEW&quot;&gt;http://extraimago.com/image/L0c&lt;/a&gt;\n &lt;a href=&quot;\nhttp://www.imdb.com/title/tt3478232/&quot; rel=&quot;nofollow&quot; target=&quot;_NEW&quot;&gt;\nhttp://www.imdb.com/title/tt3478232/&lt;/a&gt;\n\n\nMarek and her company must go on a journey and prevent Szorlok from obtaining all the shards of the Darkspore, or all will be lost.\n\nDirector: Anne K. Black (as Anne Black)\nWriters: Anne K. Black, Jason Faller\nStars: Melanie Stone, Adam Johnson, Jake Stormoen \nGenres: Action | Adventure | Fantasy\nCountry: USA\nLanguage: English\n\n\nMythica.The.Darkspore.2015.BRRip.x264-MenaceIISociety\n &lt;a href=&quot;\nhttp://www.imdb.com/title/tt3478232/&quot; rel=&quot;nofollow&quot; target=&quot;_NEW&quot;&gt;\nhttp://www.imdb.com/title/tt3478232/&lt;/a&gt;\nSource: BluRay [THANKS]\n\nGeneral\nComplete name: Mythica.The.Darkspore.2015.BRRip.x264-MenaceIISociety.mp4\nFormat: MPEG-4\nFormat profile: Base Media\nCodec ID: isom\nFile size: 1.21 GiB\nDuration: 1h 48mn\nOverall bit rate mode: Variable\nOverall bit rate: 1 596 Kbps\nEncoded date: UTC 2015-08-23 09:49:53\nTagged date: UTC 2015-08-23 09:49:53\n\nVideo\nID: 1\nFormat: AVC\nFormat/Info: Advanced Video Codec\nFormat profile: &lt;a class=&quot;__cf_email__&quot; href=&quot;/cdn-cgi/l/email-protection&quot; data-cfemail=&quot;bef6d7d9d6fef28a908f&quot;&gt;[email&amp;#160;protected]&lt;/a&gt;&lt;script data-cfhash='f9e31' type=&quot;text/javascript&quot;&gt;\n/* &lt;![CDATA[ */!function(){try{var t=&quot;currentScript&quot;in document?document.currentScript:function(){for(var t=document.getElementsByTagName(&quot;script&quot;),e=t.length;e--;)if(t[e].getAttribute(&quot;data-cfhash&quot;))return t[e]}();if(t&amp;&amp;t.previousSibling){var e,r,n,i,c=t.previousSibling,a=c.getAttribute(&quot;data-cfemail&quot;);if(a){for(e=&quot;&quot;,r=parseInt(a.substr(0,2),16),n=2;a.length-n;n+=2)i=parseInt(a.substr(n,2),16)^r,e+=String.fromCharCode(i);e=document.createTextNode(e),c.parentNode.replaceChild(e,c)}t.parentNode.removeChild(t);}}catch(u){}}()/* ]]&gt; */&lt;/script&gt;\nFormat settings, CABAC: Yes\nFormat settings, ReFrames: 3 frames\nCodec ID: avc1\nCodec ID/Info: Advanced Video Coding\nDuration: 1h 48mn\nBit rate mode: Variable\nBit rate: 1 248 Kbps\nMaximum bit rate: 40.0 Mbps\nWidth: 720 pixels\nHeight: 400 pixels\nDisplay aspect ratio: 16:9\nFrame rate mode: Constant\nFrame rate: 23.976 fps\nColor space: YUV\nChroma subsampling: 4:2:0\nBit depth: 8 bits\nScan type: Progressive\nBits/(Pixel*Frame): 0.181\nStream size: 971 MiB (78%)\nWriting library: x264 core 148 r2579 73ae2d1\n\nAudio\nID: 2\nFormat: AAC\nFormat/Info: Advanced Audio Codec\nFormat profile: LC\nCodec ID: 40\nDuration: 1h 48mn\nBit rate mode: Variable\nBit rate: 345 Kbps\nMaximum bit rate: 402 Kbps\nChannel(s): 6 channels\nChannel positions: Front: L C R, Side: L R, LFE\nSampling rate: 48.0 KHz\nCompression mode: Lossy\nStream size: 268 MiB (22%)\nLanguage: English\nEncoded date: UTC 2015-08-23 09:26:15\nTagged date: UTC 2015-08-23 09:53:40 \n\n &lt;a href=&quot;\nhttp://extraimago.com/image/L01&quot; rel=&quot;nofollow&quot; target=&quot;_NEW&quot;&gt;\nhttp://extraimago.com/image/L01&lt;/a&gt; &lt;a href=&quot;\nhttp://extraimago.com/image/L0E&quot; rel=&quot;nofollow&quot; target=&quot;_NEW&quot;&gt;\nhttp://extraimago.com/image/L0E&lt;/a&gt; &lt;a href=&quot;\nhttp://extraimago.com/image/L0O&quot; rel=&quot;nofollow&quot; target=&quot;_NEW&quot;&gt;\nhttp://extraimago.com/image/L0O&lt;/a&gt; &lt;a href=&quot;\nhttp://extraimago.com/image/L0S&quot; rel=&quot;nofollow&quot; target=&quot;_NEW&quot;&gt;\nhttp://extraimago.com/image/L0S&lt;/a&gt; &lt;a href=&quot;\nhttp://extraimago.com/image/L0q&quot; rel=&quot;nofollow&quot; target=&quot;_NEW&quot;&gt;\nhttp://extraimago.com/image/L0q&lt;/a&gt;","torrent":{"xt":"urn:btih:9109dcdde488d2bcc73cdff624f4690bd9650af4","amp;dn":"Mythica.The.Darkspore.2015.BRRip.x264-MenaceIISociety","amp;tr":["udp%3A%2F%2Ftracker.openbittorrent.com%3A80","udp%3A%2F%2Fopen.demonii.com%3A1337","udp%3A%2F%2Ftracker.coppersurfer.tk%3A6969","udp%3A%2F%2Fexodus.desync.com%3A6969"],"infoHash":"9109dcdde488d2bcc73cdff624f4690bd9650af4","infoHashBuffer":{"type":"Buffer","data":[145,9,220,221,228,136,210,188,199,60,223,246,36,244,105,11,217,101,10,244]},"announce":[],"urlList":[]}}